<svg id="Layer_1" data-name="Layer 1" xmlns="http://www.w3.org/2000/svg" viewBox="0 0 353.6 640.06"><defs><style>.cls-1{fill:#fff;}</style></defs><path d="M973.56,854.71c4.06-2.28,9.51-4.31,13.63-7.88a136.08,136.08,0,0,0,18.62-19.33c2.28-3,2.81-8.3,2.2-12.25-1.73-11.23-6.08-16.07-17.33-21.33,9.19-11.32,14.7-24.46,18.8-38.14,4.54-15.14,8.45-30.47,12.66-45.71A16,16,0,0,1,1025,704c2,7.36,3.79,14.77,6,22.07,4.81,16.08,9.34,32.26,15,48.06,2.45,6.88,7.3,12.91,11,19.27-12.35,4.82-19.48,16.33-17.77,30,.28,2.18,2.39,4.24,3.93,6.14,8.26,10.24,17.95,18.53,30.57,23.2,2.64,1,5.72,3.72,6.48,6.27,2.16,7.27,7.56,7.85,13.51,8.1.32,0,.65-.13,1-.14,11.48-.4,11.48-.4,19.66-8.17l.35-.35c3.34-3.46,9.46-5.49,5.57-12,1-.37,1.36-.65,1.51-.56,5,3.19,7.94,1,11.8-2.93,4.52-4.63,10.72-7.63,16.19-11.34l.9.9-16.2,20.9c1.31,4.74,1,5-8.91,4-.59,8.6-7.67,11-14.53,14.29,4.26,5-.92,8.81-1.2,13.08,19.38,12.47,25.09,32.36,30.06,54-4.1-2.19-7.06-4.31-10.35-5.41a104.54,104.54,0,0,0-15.77-4c-4.23-.71-8.66-.21-12.93-.79-9.33-1.26-17.51,3.68-26.66,5.27,7.55,2.46,15.22,4.61,22.62,7.45,16.17,6.2,32.15,12.87,48.3,19.12,30.1,11.66,47.79,33.42,53.27,65.11,4.12,23.86,3.23,47.55-4.48,70.58-11,32.9-34.69,49.09-69.3,48.25-5.56-.14-11.43-1.3-16,4.15l5.53,6c-.13.46-.26.91-.4,1.37-2.92-.8-5.86-1.55-8.76-2.42-4.91-1.49-5.44-.86-4.86,4.19.15,1.33-1.28,3.33-2.54,4.23-2.14,1.51-4.72,2.38-7.87,3.89,6.72,2.74,16.47-.22,17.32,10.94a21.35,21.35,0,0,1-3.17-1.94c-6.48-5.68-14.58-7.71-22.56-9.89-1.57-.43-3.57.25-5.26.78-8.35,2.61-16.67,4.74-25.81-.67,5.63,10.74,10.78,20.59,15.94,30.43-1.93-7.52-5.15-14.76-2.19-23.28h9.44c-8.14,6.91-8.62,10.85-2.13,18.11,5.94,6.65,7.93,14,5.92,22.64a23.08,23.08,0,0,0-.29,3.18,46.77,46.77,0,0,1,25.72,19.39c-7.35.39-14-5.23-20.28-2.65-.36,5.43.63,10.85-1.32,14.82-2.53,5.16-6.94,9.68-11.36,13.54-6.37,5.55-13.56,10.16-20.22,15.4-1.74,1.37-3,2.67-1.36,6.08a17.23,17.23,0,0,1,.07,12.88c-7,15.82-14.85,31.27-22.42,46.84a11.08,11.08,0,0,1-1.35,1.6c-3.6-7-7.06-13.76-10.47-20.5-3.9-7.71-7.68-15.5-11.67-23.16-2.89-5.53-5.16-11.08-4.75-17.57.32-5.11-3.51-8-7.1-10.77-4.78-3.62-9.84-6.87-14.6-10.51-9.49-7.26-12.45-14.24-11.32-26-5.07-3.81-8-4-13.48-.66-2.23,1.37-4.24,3-6.83-.14,3.88-6,9.84-9.94,15.73-13.85A12.25,12.25,0,0,1,964,1219c4.95-1.07,6.53-3.88,5.84-8.87-1.09-7.88,1.67-14.66,6.76-20.72,1.69-2,2.56-4.73,3.81-7.13l-.88-1.62c-6.68.43-13.55,0-20,1.5-8.13,1.83-15.91,5.18-23.86,7.89l7.32,2,.29.83c-2.28.46-4.6.74-6.81,1.41-3.71,1.12-7.87,1.74-10.93,3.87-12.19,8.52-21,20.36-29.67,32.17a9.63,9.63,0,0,1-2,2.17c5.77-16.44,12.19-32.48,24.94-45.1a14.06,14.06,0,0,0,3.31-6.35c2-8,5.85-14.55,11.79-18.66l-4.46,8.29c1.67,1.5,3.35,2.77,4.75,4.3,6.53,7.14,7.53,7.22,15.19,1.54,3.6-2.67,7.28-5.27,11.1-7.6,1.4-.86,4.32-1.7,4.83-1.1,1.53,1.8,4.42,3.82,1.78,6.9a10.49,10.49,0,0,0-.89,2l14.56,1-6.68-5.67c7.42-2.13,11.44,1.29,10.35,8.23a45.62,45.62,0,0,0-.9,10.55l12.44-24c-.5-.24-.86-.56-1-.48-4.53,2.33-8.39,3.24-14,1.09-13-4.9-26-4.43-37.16,5.65a20.48,20.48,0,0,1-3.46,2l-.86-1.21,12.2-9.94c-3.05-2.83-5.7-6-9-8.11-2.15-1.39-5.23-1.35-8.74-2.13l7.57-6.88c-7-.87-13-2.14-19.1-2.24-10.62-.18-20.93-1.51-30.71-5.76-20-8.69-31.33-25.1-37.6-44.91-8.81-27.81-9.31-56,0-84,6.45-19.36,18.91-33.89,36.7-43.7,20.22-11.15,42-18.41,63.81-25.76l20.71-7c-12-7-23.64-2.82-34.77-4-12.1-1.27-21.75,5-33.14,9.66,2.15-7.33,3.46-15.06,6.67-21.89,4.22-9,9.81-17.35,15.09-25.81,2.11-3.39,4.79-6.8,9.54-3.14.44.34,1.22.24,3,.54-2.62-4.85-9.23-8-4.12-13.94-5.88-5.84-16.82-7-15.57-18.24l-9.57.5,1.11-1.46c-1.59-2.77-3-5.67-4.83-8.28-3.63-5.17-7.49-10.17-11.26-15.25l.88-1.21,22.34,15.47,3.22-2.92,3,8.53c4.23,4.91,8.76,10.3,13.47,15.51a4.1,4.1,0,0,0,3.41,1.09c5.73-1.51,11.32-3,17.44-1.65,2.73.59,4.33-1.76,4.8-4.64.12-.79,1.29-1.41,2-2.11.29,1.1,1.18,2.74.76,3.21a48.23,48.23,0,0,1-6.77,6.24c-1.26.94-3.07,1.16-5.56,2,1.06,2.33,1.58,4.87,3.08,6.51,9.76,10.71,19.72,21.22,29.64,31.78a9.76,9.76,0,0,0,2.31,1.9c5,2.74,8.3,7,11.17,11.74.39.64,1.17,1,2.71,2.36,0-6.88,2.87-12.64-.08-18.65-2.15-4.37-4.41-8.71-6.2-13.22-.48-1.22,0-3.78,1-4.45,6.55-4.64,8.31-11.78,7-18.44-1.57-8.31-7.29-14.94-16.18-16.53C985.09,853.87,979,854.71,973.56,854.71Zm130.85,37.22c.23,2.3-.41,5.39.84,6.75,4.56,5,9.75,9.41,14.71,14l.92-.94c-2.53-3.29-4.41-8.12-7.73-9.5-5.22-2.17-8-5.08-8.75-10.35l7.7,7.61,1.58-1.32-5.23-7.35Zm-83,33.76,3.75,14.21a29.39,29.39,0,0,1-.48-5.79c-.45-10.41-1-20.81-1.4-31.22-.09-2.1.87-4.53.09-6.22s-3.15-2.37-5.75-4.14c1.85,3.72,4.13,6.26,4.23,8.87.3,8.09-.23,16.2-.44,24.3-3.83,17.68.51,34.87,3.07,52.17Q1022.9,951.79,1021.37,925.69Zm-68.46,253.88c-5,1.13-10.18,2-15.12,3.47-4,1.19-8.17,2.54-11.53,4.88-3.77,2.61-6.91,6.24-9.94,9.76-3.49,4-6.55,8.44-9.79,12.69l1,.69c1.09-1.41,2.17-2.83,3.28-4.23a65.66,65.66,0,0,1,29-21.16c4.49-1.67,8.7-4.11,13-6.19,2.27-1,4.55-2.71,6.79-2.67,5,.09,4.76-3.22,5.69-6.79Zm-33.33-253.3c3.6-11.7,13.89-17.6,21.91-25.72l-7.06,3.36c1.9-4.24,3.48-7.56,4.84-11,.28-.71-.28-1.74-.46-2.62a30.15,30.15,0,0,0-3.93,1c-.66.24-1.12,1-2,1.78l2.54.15c-3.24,16.06-19,25.32-22.73,41.15l1.33,1.13c1.27-1.69,2.55-3.37,3.82-5,3-1.36,5.86-3.22,9-4,4.24-1,8.83-2.1,13-1.46,10.33,1.59,20.51,3.67,31,1.12a17,17,0,0,1,6.4-.12c6.31.94,12.59,2.12,19.73,3.35l-17.17-11.78c-.78-1.4-1.27-3.12-2.39-4.16-7.19-6.67-14.49-13.2-21.8-19.73a26.17,26.17,0,0,0-3.24-2.12l-1.26,1.68,28.81,24.23c-7.47,3.89-8.86,3.69-14.12-2.06-.67-.74-1.29-1.52-2-2.26l-14.2-15.54a41,41,0,0,0-4,3.63c-4,5.05-7.23,10.7-14.3,12.31-1.69.39-3.11,2.42-4.42,3.9C924.42,920.35,922,923.34,919.58,926.27Zm109.36-86.55c4.14-11.83,1-23.94,1.41-36,3.47,10.13,1.38,21.49,6.78,31.4,2.85-3.72-.46-6.11-.93-9a62.68,62.68,0,0,1-.23-20.27c1.27-7.51,6-13.15,14.65-15.1-14.78-21-19-45.73-25.18-71-5.79,34.35-13.06,56.66-23.13,71.5,7.66,3.59,8.74,12.09,13.73,17.83a83.6,83.6,0,0,0-7.63-16c-1.79-2.83-1.53-4.9-.35-7.74,3.5-8.42,7.11-16.83,9.8-25.52,3.18-10.26,5.44-20.81,7.43-28.62.48,14.74,1.07,32.19,1.58,49.65a6.25,6.25,0,0,1-.81,3.84c-3,3.73-.77,6.49,1.12,9.61,1.14,1.9,2.52,4.45,2.12,6.36-2.77,13.05-1.63,26.06-.25,39.1-1.41-3.47-3.67-6.84-4.06-10.43-1.11-10-1.45-20.16-2-29.58-4.78,18.77,2.4,38.31.34,57.48l6,3.09c-1-5.41-1.8-10.16-2.64-14.91l.76-.17.88,3.43.63-.11Zm9.63,72.43c1,.49,2.42.74,2.78,1.51,1.36,3,2.37,6.11,3.49,9.15,8.34-7.85,16.75-15.3,24.6-23.29s15.17-16.6,23.42-25.69c-7.51-1.84-10.76-6.67-13.29-12.76-1.6-3.86-4.82-7.66-9.78-7.42s-10.16.46-14.6,2.3c-6.24,2.59-12.56,6.35-14.07,13.75-1.56,7.66-.51,14.93,6.76,19.93.67.46.94,2.44.54,3.33-2.31,5.11-4.86,10.11-7.37,15.13-.71,1.43-1.58,2.78-2.38,4.17l-4.32,28.68,1.55.19C1039.39,931.74,1040.77,922.13,1038.57,912.15Zm-15.81,412.53a40.12,40.12,0,0,0-1.1-4.25c-4.38-11.61-8.72-23.24-13.32-34.76a24.89,24.89,0,0,0-5-7.93c-7.17-7.39-14.66-14.47-22-21.72-2.26-2.23-4.37-4.6-6.55-6.92a18.56,18.56,0,0,0,4.42,7.14c6.51,6.64,13.17,13.14,19.76,19.71,3.58,3.55,5.6,7.77,7.48,12.57,4.8,12.27,10.83,24.07,16.37,36l1.82,5.39,1.24-.12c.29-2.35.62-4.69.88-7,.82-7.44.6-15.18,2.64-22.26,3.63-12.56,2.51-25.07,1.92-37.68-.11-2.56-.33-5.12-.5-7.68l1.06-.27c2.15,4.4,4.29,8.8,7,14.33,9.59-8.86,18.9-17.58,28.37-26.12,2.42-2.19,5.35-3.81,8-5.7l1.47,1c-.56,1.65-.83,3.47-1.71,4.92-5.64,9.26-14.16,15.73-22.31,22.53-5.37,4.48-11.21,8.65-13.17,15.81-.86,3.13-.49,6.59-1.09,9.82-.21,1.16-1.61,2.1-2.46,3.14l-1.36-.75q-3.42,15.07-6.86,30.14l1.27.42c3.93-9,8.12-17.83,11.68-27a36.09,36.09,0,0,0,2.15-12.09c.11-4.1,1-7.45,4.13-10.19,6.73-6,13.26-12.17,20.17-17.92a33.08,33.08,0,0,0,11.27-18.87c.46-2,.78-4.09,1.16-6.13l-1.6-1.11c-3.86,2.7-7.76,5.34-11.57,8.09-7.37,5.33-14.53,11-22.12,16-4.25,2.8-5.63,1.85-7.54-3-1.69-4.31-3.79-8.48-5.21-12.87-1-3.11-1.16-6.49-1.7-9.76l1.57-.57c1.34,1.15,3,2.06,4,3.48,2.9,4.42,5.61,9,8.17,13.6,1,1.79,1.82,3.68,3.94,2,4.39-3.53,8.52-7.37,12.83-11.15-4-3.87-7.14-6.39-11.9-4.36-.86.36-2.54-.68-3.61-1.4-2.74-1.85-5.19-5.24-8-5.56-4.56-.52-4.92-2.86-5.07-6.21-.53-12.15-1-24.29-1.67-36.43-.55-10-1.31-20.07-2-30.1l.39-.05,1.83,7.47.46-.09q-2.67-20-5.32-40a52.9,52.9,0,0,0-1.36,12.43q.47,27.22,1.22,54.45c.32,11.8.86,23.6,1.25,35.41,0,1,0,2.5-.57,2.8-4.43,2.48-2.43,6.54-2.42,9.9.06,13.15.56,26.29.62,39.44.06,15.32-.13,30.65-.31,46C1023.9,1322,1023.16,1323.35,1022.76,1324.68Zm85.76-192.44-.07.84c1.91.35,3.81.81,5.74,1,11.59,1.34,23.21,3.16,34.74-.1,20-5.66,31.3-20.27,37.86-38.79,8.25-23.32,9-47.43,3.89-71.48-4.84-22.61-17.18-40.44-38-51.3a454.82,454.82,0,0,0-85.12-34c-5.62-1.62-11.15-3.55-17.58-5.62,9.11-6.76,18.55-7.36,27.93-6,9.84,1.47,19.6,1.81,28.5-2.38,6.86-3.23,12-2.06,17.47,2.07,2,1.55,4.16,3,6.24,4.44l1.1-1.17c-3.18-7.32-7.78-13.38-15.18-17.43a108.33,108.33,0,0,1-12.11-8.27c-1.67-1.25-3-3-5-5.19-6.09,6.24-12,12.08-17.62,18.12-3.39,3.61-6.64,7-11.86,4,3.54-3.14,7.53-6,10.63-9.61a68.1,68.1,0,0,1,18.36-15.59,16.11,16.11,0,0,0,8.6-13.19c-.91.12-1.15.78-1.56,1.3-3.41,4.37-6.16,9.25-12.24,10.92-2.67.74-5,3.07-7.2,5.06-7.07,6.52-13.66,13.59-21,19.71-3.83,3.18-9.18,4.41-12,9.16-.67,1.13-2.39,1.64-3.64,2.43s-2.47,1.54-3.7,2.31c9.28,3.84,17.89,6.35,26.45,9,27.7,8.63,54.72,19,80.21,32.93,16.19,8.87,27.16,22.3,32.83,39.91,9.44,29.33,7.16,58.17-4.33,86.4-3.49,8.6-9.5,15.55-16.77,21.44-12.35,10-26.74,11-41.67,9.89C1117.76,1132.78,1113.14,1132.53,1108.52,1132.24Zm-158.66-.79c-4,.2-8,.54-11.92.58-11.28.1-22.89,1.83-33.75-.28-20.45-4-32.55-18.69-39.22-37.59-7.56-21.4-9.57-43.4-5.12-65.9,5-25.38,17.35-45.55,41.4-56.46,18.89-8.57,38.33-16,57.8-23.23,12.76-4.73,26-8.1,39-12.26,2.11-.68,3.93-2.27,5.88-3.44l-1-1.62c-2.36.91-4.67,2-7.07,2.71-13.14,4.2-26.53,7.74-39.42,12.6-19.42,7.33-38.85,14.81-57.61,23.63-21.52,10.11-35.32,27.41-40.5,50.88a152,152,0,0,0-2.88,22.24c-1.38,20.21.86,40,9.6,58.48,8.5,18,21.58,30.9,42.24,33.55C921.69,1137.17,935.84,1134.38,949.86,1131.45Zm84.07-287.07c-1.65,7.16,1.65,15.85-6.8,20.68.37,4.64-2.63,9.3.76,14.08,1,1.39-.43,4.6-1,6.93-.34,1.45-1.94,3.52-1.49,4.06a6.64,6.64,0,0,0,4.47,2.1c2.22.06,4.46-.75,7-1.25-1.66,6.32-7.15,4.5-10.59,5.74v82.85a34.71,34.71,0,0,0,2.46-10.69q1.28-27.69,2.17-55.4c.27-8.35,2.27-15.8,10.1-21.82l-8.39-12.9,3.86-.7c-.41-2.43-.76-4.53-1.15-6.82l-4.68,6.84-2.26-.84C1031.8,866.5,1036.87,856,1033.93,844.38Zm-14.79,383.25c-2.55-1.94-4.23-3.93-6.27-4.45-1-.24-3,2.21-3.89,3.8-1.81,3.14-3.19,6.53-4.17,8.58-2.42,1.41-3.81,2.67-5.4,3s-3.63-.11-5-.19l7.73-3.59c-9.61-3.86-9.64-3.85-11.76,2.55l15.25,13.46C1005.26,1239.72,1009.49,1232.89,1019.14,1227.63Zm24.8-13.25c-7.4-1.84-9.49.1-7.68,6.57,7.16-2.58,10.11,5.56,16.44,6.77-1.56-5.38-2.63-10.37-4.48-15-1.46-3.69-2.85-8.16-9.25-7.85C1040.75,1208.24,1042.25,1211.13,1043.94,1214.38ZM1020,1237.57l-.81.07q-.74,8.63-1.48,17.25l-1.92-.11v-8.89c-1.68,4.26-1.51,9.15-6.74,11.16-.35.13-.34,1.21-.49,1.85-.76,3.1-1.53,6.21-2.29,9.31,4.32-2.57,4.64-9.64,12.27-9v44.94H1020Zm79.68-362.65c-2.86,3.09-3.1,6.12-5.93,8.57-10.24,8.82-19.42,18.9-28.83,28.66-2.07,2.15-3.49,4.93-5.2,7.42,6.5-5.45,12-11.61,18-17.39,5.18-5,10.31-10.38,16.33-14.25C1099.05,884.7,1100.28,881,1099.68,874.92Zm-77.79,271.6h-.66l-1.67,80.66,2.33,0Zm15.38-301.81c5.2.48,9.74,5.27,16.89,3-3.11-3.39-5.12-6.05-7.62-8.12-1.7-1.41-4.28-3-6.11-2.7C1037,837.52,1036.19,840.58,1037.27,844.71Zm-45.72,76.87.9-1-33.14-32.28L957.74,890Zm3.8-71.78-1.29-.82c2.48-.49,5-.89,7.44-1.48,8.76-2.11,8.77-2.17,6.85-10.8-.06-.28-.38-.49-1.73-2.13Zm54.11,4c-3.44,0-6.33-.25-9.11.19-.69.1-1,2.44-1.54,3.76,2.85.46,1.13,1.9.75,3.17a36.28,36.28,0,0,0-.7,4.39Zm-67.29,394.12c-2.42-7.71-11-15.45-16.2-14.46Zm5.73.59c-.88,4.54,8.76,15.19,16.94,17.47Zm20.2-37.53-2.22-6.49c-5.65,6.89-8,13.91-8.8,23.09C1001,1221.19,999.35,1212.76,1008.1,1211Zm14.33-319.29c1.32-6-6-3.65-6.3-9.11l-4.54,7.47ZM957.14,889c-1.11-6.91-8.31-6.51-11.17-11.83C947.37,885.31,950,888,957.14,889Zm62.61-22.49c.19,3.43-3.54,9,2.48,9.7,3.7.42,3-4.11,3.81-7.43l-4.12,3.07C1021.05,869.71,1020.4,868.11,1019.75,866.5Zm49.84,359.37,12.88-2.13C1075.93,1220,1072.57,1220.53,1069.59,1225.87ZM1007.3,852.66H999l6.28,6.94ZM944.44,889l-1.05,1.49c1.43,1.79,2.85,3.58,4.47,5.63l3.47-3.79Z" transform="translate(-847.2 -703.97)"/><path d="M1117.84,1169.17l-1.71-3.44c4.59,2.8,6.93,7,8.66,11.81,1.42,4,3.22,8.23,6.09,11.13a77,77,0,0,1,15.82,24c2.56,5.86,5.36,11.62,8.62,18.63-16-15-25-36.56-49.73-38.24.14-.67.28-1.35.41-2l12.57-1.27-4.71-2.89c.26-.47.51-.94.76-1.41,2.26,1.1,4.47,2.32,6.79,3.26a51.79,51.79,0,0,0,5.42,1.55c-1.42-3.06-2.94-6.09-4.26-9.2C1120.91,1177.12,1119.41,1173.13,1117.84,1169.17Z" transform="translate(-847.2 -703.97)"/><path d="M1117.84,1169.17c1.57,4,3.07,7.95,4.73,11.87,1.32,3.11,2.84,6.14,4.26,9.2-1.46-1-2.88-2.1-4.41-3-2.25-1.31-4.86-3.86-6.83-3.46-6.37,1.31-12-1.41-18.3-1.36l11.14,4.82.12,1c-2.6-.23-5.45.17-7.73-.8-5.46-2.31-10.66-5.27-16-8l.14.17c-1.76-2.45-3.51-4.91-5.71-8,.69-3.22,3.09-4.31,6.66-2.32,5.06,2.81,10,5.92,15,8.78,1.85,1.06,3.89,1.79,6.39,2.91,2.48-3.58,4.79-7.12,7.35-10.45C1115.29,1169.78,1116.76,1169.62,1117.84,1169.17Z" transform="translate(-847.2 -703.97)"/><path d="M1084.86,1179.47c-1.27.75-2.5,2-3.82,2.15-3.71.29-7.47.1-12.4.1,4.85-4.71,10.53-5,16.36-2.08Z" transform="translate(-847.2 -703.97)"/><path d="M1030.34,787.17c-2.24-7.4.87-14.94-.13-22.39C1031.61,772.19,1036.21,779.44,1030.34,787.17Z" transform="translate(-847.2 -703.97)"/><path class="cls-1" d="M973.84,989.41l12,4,.88-1.57a6.23,6.23,0,0,1,.68-1,.67.67,0,0,1,.47-.2.57.57,0,0,1,.44.18.61.61,0,0,1,.18.42,3.88,3.88,0,0,1-.66,1.48l-5.78,9.81,4.59-.31a17.71,17.71,0,0,1,4.81.59,13.63,13.63,0,0,1,4.72,2.05,10.63,10.63,0,0,1,3.1,3.29,8,8,0,0,1,1.13,4.17,12.53,12.53,0,0,1-3.51,8.23q-3.51,4-12.49,8.52-3.15-1.17-7.34-2.46-7.46,3.42-12.26,3.42a8.14,8.14,0,0,1-5.26-1.5,4.37,4.37,0,0,1-1.84-3.46,4.88,4.88,0,0,1,2.23-3.83q2.22-1.74,6.6-1.74a26,26,0,0,1,4.26.43l2.16-3.8-3.88.3a19.73,19.73,0,0,1-3.71-.39,11,11,0,0,1-3.83-1.33,6.26,6.26,0,0,1-2.24-2.28,5.87,5.87,0,0,1-.74-2.84,6.06,6.06,0,0,1,1.67-4.19,9.18,9.18,0,0,1,3.5-2.09l0-.32a10.44,10.44,0,0,1,2.19-5.66Q968,994.1,973.84,989.41Zm1.34,36.55a35.15,35.15,0,0,0-10.81-2.2,5.61,5.61,0,0,0-3.45,1,1.88,1.88,0,0,0-.87,1.56,1.8,1.8,0,0,0,.87,1.57,7.05,7.05,0,0,0,4,1Q969,1028.79,975.18,1026Zm2.66-18.55a47.12,47.12,0,0,1-6.69.5,11.2,11.2,0,0,1-5.11-.85,5.22,5.22,0,0,1-2.26-2.65,3.55,3.55,0,0,0-1.91,3,3.19,3.19,0,0,0,1.49,2.7q2,1.38,6.7,1.38a50.31,50.31,0,0,0,5.68-.4Zm5.55-9.77a46.16,46.16,0,0,0-6.48-2.76,14.36,14.36,0,0,0-4.1-.7,5.85,5.85,0,0,0-4,1.4,4.3,4.3,0,0,0-1.56,3.29,3.92,3.92,0,0,0,1.34,3,5.94,5.94,0,0,0,4,1.19c1.19,0,3.85-.18,8-.53ZM972,1020.12c1.66.37,3,.71,4.07,1s2.93.93,5.62,1.86q6.42-2.91,6.41-5.65a2.05,2.05,0,0,0-.75-1.54,2.69,2.69,0,0,0-1.9-.69,31.41,31.41,0,0,0-3.5.24q-5.77.61-7.59.62Zm5.19-9.11q6.33-.63,8.79-.63a7.66,7.66,0,0,1,5.14,1.53,4.65,4.65,0,0,1,1.78,3.65,5.15,5.15,0,0,1-1.74,3.61c-1.16,1.17-3.64,2.62-7.45,4.37l5.39,1.42a19.7,19.7,0,0,0,5.36-4.64,9,9,0,0,0,1.88-5.49,7.19,7.19,0,0,0-1.18-3.86,8.15,8.15,0,0,0-3.63-3,13.35,13.35,0,0,0-5.63-1.13,55.93,55.93,0,0,0-6.6.49Z" transform="translate(-847.2 -703.97)"/><path class="cls-1" d="M1003.72,1003.67l7.4-9.12h.77l-.27,7.31H1017v3h-5.33v17.87l3,2.2,1.7-1.33.66.8-5.84,4.66a15.28,15.28,0,0,0-6.75-4.13v-.53a3.82,3.82,0,0,0,1.41-1.49,7,7,0,0,0,.45-2.84v-15.21h-2.5Z" transform="translate(-847.2 -703.97)"/><path class="cls-1" d="M1024.73,1000.78l4.7,3.91-2.09,2v14.42a7.38,7.38,0,0,0,.38,3c.26.46.52.69.79.69a1.07,1.07,0,0,0,.53-.13,14.07,14.07,0,0,0,1.39-1.06l.65.82-5.69,4.61a8,8,0,0,1-2.74-2.85,12.4,12.4,0,0,1-.61-4.68v-14.79l-2-2Zm2-9.07h3.37l-3.66,5.73h-1.06Z" transform="translate(-847.2 -703.97)"/><path class="cls-1" d="M1034.2,1003.67l7.4-9.12h.77l-.27,7.31h5.33v3h-5.33v17.87l3,2.2,1.7-1.33.66.8-5.84,4.66a15.28,15.28,0,0,0-6.75-4.13v-.53a3.82,3.82,0,0,0,1.41-1.49,7,7,0,0,0,.45-2.84v-15.21h-2.5Z" transform="translate(-847.2 -703.97)"/><path class="cls-1" d="M1058.76,1000.78l6.88,3.93-2.82,4.12-5.19-3v16.91l5.22,2.33,2.77-2,.28,1.14-6.56,4.82a32.67,32.67,0,0,0-4.34-2.11,28,28,0,0,0-4.42-1.18v-.63a3.16,3.16,0,0,0,1.22-1.38,8.92,8.92,0,0,0,.43-3.23v-15.08A23.84,23.84,0,0,0,1058.76,1000.78Z" transform="translate(-847.2 -703.97)"/><path class="cls-1" d="M1078.78,991.05l.27.64a7,7,0,0,0-2.59,2.59,10.17,10.17,0,0,0-.7,4.38v8.64l8.21-6.52a9.36,9.36,0,0,1,3.4,3.27,13,13,0,0,1,.8,5.37v12a13,13,0,0,1-.72,5,12.56,12.56,0,0,1-4.21,4.88,38.08,38.08,0,0,1-10.26,5.22l-.37-1a27.74,27.74,0,0,0,7.05-3.82,8.28,8.28,0,0,0,2.6-3.66q.45-1.45.45-7.58v-11.11a6.32,6.32,0,0,0-.37-2.57,6.11,6.11,0,0,0-2-1.93l-4.53,3.67v14.75l1.88,1.9L1073,1029l-4.73-3.8,2.1-2.08v-24.1a11.93,11.93,0,0,0-.58-4.5,5.36,5.36,0,0,0-2.29-2.2l.29-.66a9.94,9.94,0,0,1,2.25.88,15.94,15.94,0,0,1,2.22,1.71,12.76,12.76,0,0,1,3.11-2.25A11.42,11.42,0,0,1,1078.78,991.05Z" transform="translate(-847.2 -703.97)"/><path class="cls-1" d="M981.55,1054a9,9,0,0,1,4.16,2.18,6.42,6.42,0,0,1,2,4.63,8,8,0,0,1-1.55,4.44,26,26,0,0,1-5.7,5.45,15.14,15.14,0,0,1,5.2,1.16,5.09,5.09,0,0,1,2.32,2.18,10.67,10.67,0,0,1,.66,4.42v9.12a29.77,29.77,0,0,0-16.08,6.58,17.24,17.24,0,0,0-4.37-2.26,22.61,22.61,0,0,0-7.16-1.11,13.35,13.35,0,0,0-7.54,1.91c-1.27.85-1.91,1.7-1.91,2.54a3.35,3.35,0,0,0,.55,1.42,3.33,3.33,0,0,1,.54,1.5,1.27,1.27,0,0,1-.4.93,1.2,1.2,0,0,1-.87.39,1.73,1.73,0,0,1-1.34-.7,2.69,2.69,0,0,1-.6-1.81,5,5,0,0,1,.73-2.35,21.25,21.25,0,0,1,3.16-3.78,23.5,23.5,0,0,0,3.1-3.6,4.21,4.21,0,0,0,.67-2.12,2.55,2.55,0,0,0-.78-1.92,2.68,2.68,0,0,0-2-.76,2.61,2.61,0,0,0-1.77.61,3.38,3.38,0,0,0-.92,2l-1,0c0-.33,0-.58,0-.74a4.83,4.83,0,0,1,1.5-3.65,5.55,5.55,0,0,1,4-1.42c.19,0,.49,0,.9,0a7.36,7.36,0,0,0-.77-3.76,3.86,3.86,0,0,0-3.54-1.88,4.51,4.51,0,0,0-2.62.77,4,4,0,0,0-1.22,1.64l-1-.36a6,6,0,0,1,2-4,6.3,6.3,0,0,1,4.36-1.51,22.07,22.07,0,0,1,2.43.16,20,20,0,0,1,.69-5.44,8.38,8.38,0,0,1,2-3.12,33,33,0,0,1,5.23-3.93,20.35,20.35,0,0,1-6.15,1.2,19.11,19.11,0,0,1-4.24-.64A11.19,11.19,0,0,0,952,1058a2.8,2.8,0,0,0-2,.8,4.92,4.92,0,0,0-1.08,2.88h-1a9.77,9.77,0,0,1,.89-4,6.23,6.23,0,0,1,2.48-2.64,6.82,6.82,0,0,1,3.53-1,22.25,22.25,0,0,1,4.58.8,22.71,22.71,0,0,0,5.2.79,12.65,12.65,0,0,0,2.83-.31A23.71,23.71,0,0,0,971,1054l.54,1.18q-5.74,2.79-7.64,5.42a11.73,11.73,0,0,0-1.9,7v10.9a15.47,15.47,0,0,1-.79,5.56,15.16,15.16,0,0,1-3.21,4.53q4.69-2,6.31-4.26t1.61-6.71v-7.82c0-3.64.32-6.2,1-7.7a8.58,8.58,0,0,1,3.51-3.84Q972.94,1056.68,981.55,1054ZM977,1056.6a16.51,16.51,0,0,0-3.87,2.19,4.89,4.89,0,0,0-1.38,2.14,15.56,15.56,0,0,0-.38,4.17V1076a13.8,13.8,0,0,1-.53,4.39,7.78,7.78,0,0,1-2,2.89,40,40,0,0,1-6.13,4.12,31.35,31.35,0,0,1,4.64-.38,23.35,23.35,0,0,1,6.92,1v-22.08h1.17v6.9a19,19,0,0,0,5.4-4.52,8.16,8.16,0,0,0,1.75-5,5.72,5.72,0,0,0-1.36-3.83A11.56,11.56,0,0,0,977,1056.6Zm-1.6,20a10.36,10.36,0,0,0,7.84,0,4.81,4.81,0,0,0-.82-2.94,7.5,7.5,0,0,0-3.1-2.09q-2.89,1.9-3.92,2.46Zm7.84,1.17a11.84,11.84,0,0,1-3.92.79,11,11,0,0,1-3.92-.79v4.72a11.08,11.08,0,0,1,3.81-.75,13.31,13.31,0,0,1,4,.75Zm0,5.93a12.72,12.72,0,0,0-4.13-.87,9,9,0,0,0-3.71.87v4.72a16.16,16.16,0,0,1,2.14,1.15,28.32,28.32,0,0,1,5.7-2.22Z" transform="translate(-847.2 -703.97)"/><path class="cls-1" d="M1005,1056.19v.69a6.77,6.77,0,0,0-3,2.66,10.37,10.37,0,0,0-.86,4.78v23.57l3,2.25,1.17-1,.66,1-5.31,4a27.61,27.61,0,0,0-3.6-2.79,14.32,14.32,0,0,0-3.15-1.24v-.58a3.22,3.22,0,0,0,1.15-1.14,4.45,4.45,0,0,0,.57-1.62c0-.21.07-1.27.08-3.18V1064.7a20.92,20.92,0,0,0-.18-3.36,5.28,5.28,0,0,0-.74-1.8,9,9,0,0,0-1.89-1.92l.43-.53a9.19,9.19,0,0,1,4.33,2.81,12.91,12.91,0,0,1,3.59-2.86A9,9,0,0,1,1005,1056.19Z" transform="translate(-847.2 -703.97)"/><path class="cls-1" d="M1027.68,1067.05l1,.37a16.77,16.77,0,0,0-1.82,3.41,10.88,10.88,0,0,0-.38,3.19v11.3a9,9,0,0,0,.4,3.51,1.12,1.12,0,0,0,1,.7,1.4,1.4,0,0,0,.6-.15c.13-.09.51-.39,1.14-.91l.65.82-5.64,4.88a10.36,10.36,0,0,1-2.74-2.85,7.94,7.94,0,0,1-.77-3.51l-8,6.36q-4.54-3.72-4.55-7.33a10.63,10.63,0,0,1,1-4.54,30.12,30.12,0,0,1,4.49-6.5l-3.19-6.81.37-.69c.69,0,1.2.08,1.54.08a7.42,7.42,0,0,0,5.5-2.47,18.4,18.4,0,0,0,4.22,1.81,13.2,13.2,0,0,0,3.5.69,1.55,1.55,0,0,0,.85-.2A5.88,5.88,0,0,0,1027.68,1067.05Zm-6.65,5-9.06-2.78,3.22,6.83,5.84,2.74Zm0,7.9-6.41-3a14,14,0,0,0-1.49,5.68,8.39,8.39,0,0,0,3.9,7.08l4-3.23Z" transform="translate(-847.2 -703.97)"/><path class="cls-1" d="M1032.61,1056.88l18,12.37a4.55,4.55,0,0,1,.94-1.48,5.06,5.06,0,0,1,1.57-1v1.08a4,4,0,0,0-.68,1.3,10.91,10.91,0,0,0-.16,2.39v17.83a37.53,37.53,0,0,0-5,2.22,24.84,24.84,0,0,0-3.54,2.53,30.82,30.82,0,0,0-5.55-3,21.87,21.87,0,0,0-5.2-1.27v-.51a3.8,3.8,0,0,0,1.23-1.65,13.24,13.24,0,0,0,.28-3.46v-13.89a14.27,14.27,0,0,0,5.14-2.27l-7.05-4.81Zm14.29,16.21-5.47-3.74a12.92,12.92,0,0,1-1.5,1v16.39l7,3.1Z" transform="translate(-847.2 -703.97)"/><path class="cls-1" d="M1069,1065.91l7.47,8.72-11.87,8.33v4.82l6.15,2.44,4.16-2.84.58.8-8.57,6a33.75,33.75,0,0,0-4.33-2,39.71,39.71,0,0,0-4.83-1.27v-.66a2.7,2.7,0,0,0,1.21-1.31,11.74,11.74,0,0,0,.3-3.38v-15.16q2.49-.9,4.14-1.65C1064.15,1068.35,1066,1067.42,1069,1065.91Zm-4,3-.37.19v12l7-4.89Z" transform="translate(-847.2 -703.97)"/><path class="cls-1" d="M1092.69,1075.74l6.16,3.21v11.16a11.81,11.81,0,0,0-4,1.09,18,18,0,0,0-4.09,3,16.17,16.17,0,0,0-3.41-1.62,10.2,10.2,0,0,0-3.06-.45,7,7,0,0,0-4.43,1.51,2.19,2.19,0,0,1-1,.56.85.85,0,0,1-.58-.29.87.87,0,0,1-.29-.59c0-.21.18-.49.55-.85.22-.21.58-.61,1.09-1.22l2.41-3,3.42-4.54-5.8-3.12v-9.89a16.45,16.45,0,0,0,4.29-1.89,13.37,13.37,0,0,0,3-2.88,50,50,0,0,0,5.46,2,11.23,11.23,0,0,0,2.84.4,3.7,3.7,0,0,0,2.32-.65,1.8,1.8,0,0,0,.82-1.37,1.33,1.33,0,0,0-.53-1,2.54,2.54,0,0,1-1-1.8,1.89,1.89,0,0,1,.45-1.32,1.36,1.36,0,0,1,1-.49,1.75,1.75,0,0,1,1.34.68,2.6,2.6,0,0,1,.6,1.79,5.41,5.41,0,0,1-.48,2.22,13.72,13.72,0,0,1-1.84,2.81Zm-3.2,4.25-6.39,8.56a14.53,14.53,0,0,1,2.18-.58,9.64,9.64,0,0,1,1.83-.19,12.15,12.15,0,0,1,6.33,2v-7.68Zm-4.56-2.42,3.63,1.89,5.78-7.69a11.37,11.37,0,0,1-3.07.51,10.85,10.85,0,0,1-6.34-2.18Z" transform="translate(-847.2 -703.97)"/></svg>